REM DIRINDEX 1\2,1\3,1\4,1\5
REM DIRNAME cjc005,folder01,folder02,folder03,folder04
TITLE ""
FILE "P1Q_t_0650-0659.mp3" MP3
  TRACK 01 AUDIO
    TITLE "3:cjc005_2853"
    INDEX 01 00:00:00
  TRACK 02 AUDIO
    TITLE "0:"
    INDEX 01 00:01:03
  TRACK 03 AUDIO
    TITLE "4:cjc005_2854"
    INDEX 01 00:01:28
  TRACK 04 AUDIO
    TITLE "0:"
    INDEX 01 00:02:55
  TRACK 05 AUDIO
    TITLE "5:cjc005_2855"
    INDEX 01 00:03:04
  TRACK 06 AUDIO
    TITLE "0:"
    INDEX 01 00:06:57
  TRACK 07 AUDIO
    TITLE "3:cjc005_2856"
    INDEX 01 00:07:37
  TRACK 08 AUDIO
    TITLE "0:"
    INDEX 01 00:08:66
  TRACK 09 AUDIO
    TITLE "4:cjc005_2857"
    INDEX 01 00:09:18
  TRACK 10 AUDIO
    TITLE "0:"
    INDEX 01 00:10:55
  TRACK 11 AUDIO
    TITLE "5:cjc005_2858"
    INDEX 01 00:10:74
  TRACK 12 AUDIO
    TITLE "0:"
    INDEX 01 00:15:21
  TRACK 13 AUDIO
    TITLE "3:cjc005_2859"
    INDEX 01 00:16:02
  TRACK 14 AUDIO
    TITLE "0:"
    INDEX 01 00:17:18
  TRACK 15 AUDIO
    TITLE "4:cjc005_2860"
    INDEX 01 00:17:49
  TRACK 16 AUDIO
    TITLE "0:"
    INDEX 01 00:19:03
  TRACK 17 AUDIO
    TITLE "5:cjc005_2861"
    INDEX 01 00:19:28
  TRACK 18 AUDIO
    TITLE "0:"
    INDEX 01 00:23:30
  TRACK 19 AUDIO
    TITLE "3:cjc005_2862"
    INDEX 01 00:24:06
  TRACK 20 AUDIO
    TITLE "0:"
    INDEX 01 00:25:21
  TRACK 21 AUDIO
    TITLE "4:cjc005_2863"
    INDEX 01 00:25:54
  TRACK 22 AUDIO
    TITLE "0:"
    INDEX 01 00:27:06
  TRACK 23 AUDIO
    TITLE "5:cjc005_2864"
    INDEX 01 00:27:34
  TRACK 24 AUDIO
    TITLE "0:"
    INDEX 01 00:32:19
  TRACK 25 AUDIO
    TITLE "3:cjc005_2865"
    INDEX 01 00:32:66
  TRACK 26 AUDIO
    TITLE "0:"
    INDEX 01 00:34:04
  TRACK 27 AUDIO
    TITLE "4:cjc005_2866"
    INDEX 01 00:34:28
  TRACK 28 AUDIO
    TITLE "0:"
    INDEX 01 00:35:45
  TRACK 29 AUDIO
    TITLE "5:cjc005_2867"
    INDEX 01 00:35:72
  TRACK 30 AUDIO
    TITLE "0:"
    INDEX 01 00:40:72
  TRACK 31 AUDIO
    TITLE "3:cjc005_2868"
    INDEX 01 00:41:51
  TRACK 32 AUDIO
    TITLE "0:"
    INDEX 01 00:43:01
  TRACK 33 AUDIO
    TITLE "4:cjc005_2869"
    INDEX 01 00:43:29
  TRACK 34 AUDIO
    TITLE "0:"
    INDEX 01 00:44:73
  TRACK 35 AUDIO
    TITLE "5:cjc005_2870"
    INDEX 01 00:45:24
  TRACK 36 AUDIO
    TITLE "0:"
    INDEX 01 00:48:46
  TRACK 37 AUDIO
    TITLE "3:cjc005_2871"
    INDEX 01 00:49:25
  TRACK 38 AUDIO
    TITLE "0:"
    INDEX 01 00:50:42
  TRACK 39 AUDIO
    TITLE "4:cjc005_2872"
    INDEX 01 00:51:01
  TRACK 40 AUDIO
    TITLE "0:"
    INDEX 01 00:52:12
  TRACK 41 AUDIO
    TITLE "5:cjc005_2873"
    INDEX 01 00:52:37
  TRACK 42 AUDIO
    TITLE "0:"
    INDEX 01 00:55:53
  TRACK 43 AUDIO
    TITLE "3:cjc005_2874"
    INDEX 01 00:56:25
  TRACK 44 AUDIO
    TITLE "0:"
    INDEX 01 00:57:33
  TRACK 45 AUDIO
    TITLE "4:cjc005_2875"
    INDEX 01 00:57:60
  TRACK 46 AUDIO
    TITLE "0:"
    INDEX 01 00:59:38
  TRACK 47 AUDIO
    TITLE "5:cjc005_2876"
    INDEX 01 00:59:59
  TRACK 48 AUDIO
    TITLE "0:"
    INDEX 01 01:04:39
  TRACK 49 AUDIO
    TITLE "3:cjc005_2877"
    INDEX 01 01:05:24
  TRACK 50 AUDIO
    TITLE "0:"
    INDEX 01 01:06:42
  TRACK 51 AUDIO
    TITLE "4:cjc005_2878"
    INDEX 01 01:06:61
  TRACK 52 AUDIO
    TITLE "0:"
    INDEX 01 01:08:46
  TRACK 53 AUDIO
    TITLE "5:cjc005_2879"
    INDEX 01 01:08:70
  TRACK 54 AUDIO
    TITLE "0:"
    INDEX 01 01:12:70
  TRACK 55 AUDIO
    TITLE "3:cjc005_2880"
    INDEX 01 01:13:49
  TRACK 56 AUDIO
    TITLE "0:"
    INDEX 01 01:14:55
  TRACK 57 AUDIO
    TITLE "4:cjc005_2881"
    INDEX 01 01:15:07
  TRACK 58 AUDIO
    TITLE "0:"
    INDEX 01 01:16:52
  TRACK 59 AUDIO
    TITLE "5:cjc005_2882"
    INDEX 01 01:17:00
  TRACK 60 AUDIO
    TITLE "0:"
    INDEX 01 01:20:28
